<?xml version="1.0" encoding="utf-8"?>
<svg id="master-artboard" viewBox="0 0 1360.9495849609375 425.4833984375" version="1.1" xmlns="http://www.w3.org/2000/svg" x="0px" y="0px" style="enable-background:new 0 0 1400 980;" width="1360.9495849609375px" height="425.4833984375px"><rect id="ee-background" x="0" y="0" width="1360.9495849609375" height="425.4833984375" style="fill: white; fill-opacity: 0; pointer-events: none;"/><path d="M 236.92127990722656 287.8916320800781 C 236.92127990722656 290.7116394042969 236.11795043945312 292.87164306640625 234.51129150390625 294.37164306640625 C 232.9046173095703 295.87164306640625 230.58795166015625 296.62164306640625 227.561279296875 296.62164306640625 L 222.71128845214844 296.62164306640625 L 222.71128845214844 279.49163818359375 L 228.09127807617188 279.49163818359375 C 230.88461303710938 279.49163818359375 233.0546112060547 280.2283020019531 234.60128784179688 281.7016296386719 C 236.14794921875 283.181640625 236.92127990722656 285.2449645996094 236.92127990722656 287.8916320800781 M 233.1512908935547 287.98162841796875 C 233.1512908935547 284.3016357421875 231.5246124267578 282.4616394042969 228.2712860107422 282.4616394042969 L 226.34127807617188 282.4616394042969 L 226.34127807617188 293.62164306640625 L 227.9012908935547 293.62164306640625 C 231.4012908935547 293.62164306640625 233.1512908935547 291.74163818359375 233.1512908935547 287.98162841796875 ZM 248.515380859375 296.62164306640625 L 247.8153839111328 294.8416442871094 L 247.7253875732422 294.8416442871094 C 247.12538146972656 295.6016540527344 246.50538635253906 296.1249694824219 245.86538696289062 296.4116516113281 C 245.2320556640625 296.7049865722656 244.4020538330078 296.8516540527344 243.37538146972656 296.8516540527344 C 242.12205505371094 296.8516540527344 241.13204956054688 296.4949645996094 240.40538024902344 295.7816467285156 C 239.6853790283203 295.0616455078125 239.32537841796875 294.0382995605469 239.32537841796875 292.7116394042969 C 239.32537841796875 291.31829833984375 239.8120574951172 290.2916564941406 240.78538513183594 289.63165283203125 C 241.7587127685547 288.9716491699219 243.2253875732422 288.60498046875 245.1853790283203 288.5316467285156 L 247.45538330078125 288.4616394042969 L 247.45538330078125 287.8916320800781 C 247.45538330078125 286.5649719238281 246.775390625 285.9016418457031 245.41539001464844 285.9016418457031 C 244.36871337890625 285.9016418457031 243.1387176513672 286.21832275390625 241.7253875732422 286.8516540527344 L 240.54537963867188 284.431640625 C 242.0520477294922 283.6449890136719 243.7220458984375 283.25164794921875 245.55538940429688 283.25164794921875 C 247.3153839111328 283.25164794921875 248.66539001464844 283.6349792480469 249.60537719726562 284.4016418457031 C 250.53871154785156 285.1683044433594 251.00538635253906 286.3316345214844 251.00538635253906 287.8916320800781 L 251.00538635253906 296.62164306640625 L 248.515380859375 296.62164306640625 M 247.45538330078125 290.5516357421875 L 246.07537841796875 290.6016540527344 C 245.03538513183594 290.6282958984375 244.26205444335938 290.8149719238281 243.75538635253906 291.1616516113281 C 243.24871826171875 291.50164794921875 242.99537658691406 292.02496337890625 242.99537658691406 292.73162841796875 C 242.99537658691406 293.7383117675781 243.57205200195312 294.24163818359375 244.7253875732422 294.24163818359375 C 245.5520477294922 294.24163818359375 246.2153778076172 294.0049743652344 246.7153778076172 293.5316467285156 C 247.20870971679688 293.0516357421875 247.45538330078125 292.4183044433594 247.45538330078125 291.63165283203125 L 247.45538330078125 290.5516357421875 ZM 262.000244140625 283.2716369628906 C 262.4802551269531 283.2716369628906 262.8802490234375 283.3083190917969 263.20025634765625 283.38165283203125 L 262.94024658203125 286.73162841796875 C 262.64691162109375 286.6516418457031 262.2935791015625 286.61163330078125 261.8802490234375 286.61163330078125 C 260.740234375 286.61163330078125 259.8502502441406 286.90496826171875 259.2102355957031 287.49163818359375 C 258.576904296875 288.07830810546875 258.26025390625 288.8983154296875 258.26025390625 289.9516296386719 L 258.26025390625 296.62164306640625 L 254.69024658203125 296.62164306640625 L 254.69024658203125 283.5216369628906 L 257.3902282714844 283.5216369628906 L 257.92022705078125 285.7216491699219 L 258.1002502441406 285.7216491699219 C 258.500244140625 284.9883117675781 259.0469055175781 284.3983154296875 259.740234375 283.9516296386719 C 260.4335632324219 283.4983215332031 261.1869201660156 283.2716369628906 262.000244140625 283.2716369628906 ZM 272.7777404785156 296.8516540527344 C 271.23773193359375 296.8516540527344 270.03106689453125 296.29498291015625 269.1577453613281 295.181640625 L 268.9677429199219 295.181640625 C 269.0943908691406 296.27496337890625 269.1577453613281 296.9082946777344 269.1577453613281 297.0816345214844 L 269.1577453613281 302.3916320800781 L 265.5877380371094 302.3916320800781 L 265.5877380371094 283.5216369628906 L 268.48773193359375 283.5216369628906 L 268.99774169921875 285.2216491699219 L 269.1577453613281 285.2216491699219 C 269.9910583496094 283.921630859375 271.22772216796875 283.2716369628906 272.86773681640625 283.2716369628906 C 274.4143981933594 283.2716369628906 275.62774658203125 283.87164306640625 276.5077209472656 285.0716552734375 C 277.3810729980469 286.2649841308594 277.8177185058594 287.92498779296875 277.8177185058594 290.0516357421875 C 277.8177185058594 291.4449768066406 277.6110534667969 292.6582946777344 277.1977233886719 293.691650390625 C 276.79107666015625 294.7249755859375 276.2077331542969 295.51165771484375 275.4477233886719 296.0516357421875 C 274.69439697265625 296.5849914550781 273.8044128417969 296.8516540527344 272.7777404785156 296.8516540527344 M 271.72772216796875 286.13165283203125 C 270.841064453125 286.13165283203125 270.19439697265625 286.40496826171875 269.7877197265625 286.9516296386719 C 269.3810729980469 287.49163818359375 269.17108154296875 288.3883056640625 269.1577453613281 289.6416320800781 L 269.1577453613281 290.0216369628906 C 269.1577453613281 291.4283142089844 269.36773681640625 292.4383239746094 269.7877197265625 293.0516357421875 C 270.2010803222656 293.6582946777344 270.8610534667969 293.9616394042969 271.7677307128906 293.9616394042969 C 273.36773681640625 293.9616394042969 274.167724609375 292.6416320800781 274.167724609375 290.00164794921875 C 274.167724609375 288.7149658203125 273.9710693359375 287.7483215332031 273.5777282714844 287.1016540527344 C 273.18438720703125 286.4549865722656 272.5677185058594 286.13165283203125 271.72772216796875 286.13165283203125 ZM 292.8639221191406 296.62164306640625 L 289.283935546875 296.62164306640625 L 289.283935546875 288.9716491699219 C 289.283935546875 288.02496337890625 289.11724853515625 287.3149719238281 288.783935546875 286.8416442871094 C 288.4505920410156 286.3683166503906 287.9172668457031 286.13165283203125 287.1839294433594 286.13165283203125 C 286.1839294433594 286.13165283203125 285.4606018066406 286.4649658203125 285.013916015625 287.13165283203125 C 284.5672607421875 287.8049621582031 284.34393310546875 288.91497802734375 284.34393310546875 290.4616394042969 L 284.34393310546875 296.62164306640625 L 280.77392578125 296.62164306640625 L 280.77392578125 283.5216369628906 L 283.50390625 283.5216369628906 L 283.9839172363281 285.191650390625 L 284.1839294433594 285.191650390625 C 284.5772399902344 284.5583190917969 285.1239318847656 284.0816345214844 285.82391357421875 283.76165771484375 C 286.52392578125 283.4349670410156 287.3205871582031 283.2716369628906 288.21392822265625 283.2716369628906 C 289.7339172363281 283.2716369628906 290.8905944824219 283.6849670410156 291.6839294433594 284.51165771484375 C 292.4705810546875 285.3316345214844 292.8639221191406 286.5216369628906 292.8639221191406 288.0816345214844 L 292.8639221191406 296.62164306640625 ZM 307.3060302734375 296.62164306640625 L 306.0660095214844 292.5416564941406 L 299.8260192871094 292.5416564941406 L 298.5760192871094 296.62164306640625 L 294.666015625 296.62164306640625 L 300.71600341796875 279.421630859375 L 305.156005859375 279.421630859375 L 311.22601318359375 296.62164306640625 L 307.3060302734375 296.62164306640625 M 305.2060241699219 289.49163818359375 C 304.05267333984375 285.7983093261719 303.406005859375 283.7116394042969 303.2660217285156 283.23162841796875 C 303.1193542480469 282.7449645996094 303.0160217285156 282.36163330078125 302.9560241699219 282.0816345214844 C 302.6960144042969 283.0816345214844 301.9560241699219 285.5516357421875 300.73602294921875 289.49163818359375 L 305.2060241699219 289.49163818359375 ZM 313.3832092285156 296.62164306640625 L 313.3832092285156 279.49163818359375 L 317.0132141113281 279.49163818359375 L 317.0132141113281 296.62164306640625 L 313.3832092285156 296.62164306640625 Z" transform="matrix(13.107437133789062, 0, 0, 13.107437133789062, -2861.1767578125, -3575.4873046875)" style="fill: rgb(255, 135, 43); white-space: pre; color: rgb(30, 36, 51);"/><path d="M 559.5089721679688 229.9230194091797" style="fill: rgb(255, 135, 43); fill-opacity: 1; stroke: rgb(0, 0, 0); stroke-opacity: 1; stroke-width: 0; paint-order: fill;" transform="matrix(1, 0, 0, 1, -10.93413062262914, -17.18220526413154)"/></svg>